<svg version="1.1" id="Layer_1" xmlns="http://www.w3.org/2000/svg" xmlns:xlink="http://www.w3.org/1999/xlink" x="0px" y="0px"
	 width="100%" viewBox="0 0 1024 1024" enable-background="new 0 0 1024 1024" xml:space="preserve">
<path fill="#000000" opacity="1.000000" stroke="none" 
	d="
M338.843323,389.172974 
	C356.422241,408.451630 365.848663,430.650360 367.493866,456.493835 
	C369.209717,483.447632 361.221222,507.699036 348.743530,530.892700 
	C333.612488,559.018555 314.758789,584.653992 295.193024,609.775940 
	C287.414734,619.763123 279.405609,629.582397 271.197540,639.219177 
	C264.755005,646.783142 256.495514,647.035522 250.152161,639.648010 
	C219.370163,603.799438 190.890732,566.268982 169.043030,524.174683 
	C158.575699,504.007019 152.186386,482.508331 152.766449,459.522308 
	C153.834091,417.216095 178.216660,379.271545 219.382278,363.022217 
	C262.065491,346.173767 306.890991,356.082001 338.843323,389.172974 
M329.667450,465.409302 
	C330.025116,458.020416 328.791809,450.819519 326.792694,443.766113 
	C318.173462,413.355225 290.718933,393.886749 259.265381,394.119354 
	C222.480423,394.391388 190.541931,423.197632 190.547699,463.700043 
	C190.551071,487.487488 201.041504,506.735809 220.700119,520.482727 
	C224.315231,523.010742 225.891724,525.708801 225.326706,529.996704 
	C224.611511,535.424133 224.182312,540.888550 223.527664,546.324768 
	C223.274414,548.427734 223.588959,550.113831 225.102936,551.796204 
	C234.128983,561.826416 243.001877,571.994385 252.012177,582.038940 
	C256.756836,587.328247 263.382111,587.333740 267.982971,582.064453 
	C276.746735,572.027466 285.377258,561.874146 294.147552,551.842896 
	C296.444366,549.215820 297.753632,546.812622 296.898254,542.932495 
	C295.835846,538.113220 296.312775,532.972412 295.499298,528.074341 
	C294.950928,524.772217 296.315826,523.412354 298.746643,521.745056 
	C318.180969,508.415527 328.245636,489.775116 329.667450,465.409302 
z"/>
<path fill="#000000" opacity="1.000000" stroke="none" 
	d="
M484.821106,471.287048 
	C500.149902,494.821960 494.568451,523.926025 472.116943,538.908752 
	C449.794464,553.805359 418.552155,548.317993 403.539276,526.863892 
	C388.275635,505.051453 393.474030,474.958862 415.176331,459.499268 
	C437.046539,443.920044 468.506104,449.124298 484.821106,471.287048 
M471.952972,489.567627 
	C465.435730,468.976624 442.840332,461.436920 426.601685,474.605103 
	C418.114594,481.487396 414.561157,490.813141 415.428528,501.567719 
	C416.344391,512.923706 421.552368,522.027954 432.039551,527.032288 
	C442.306366,531.931458 452.676453,531.124939 461.569061,523.855957 
	C472.187500,515.176270 475.461273,503.659576 471.952972,489.567627 
z"/>
<path fill="#000000" opacity="1.000000" stroke="none" 
	d="
M529.325439,574.101807 
	C522.784241,573.187744 516.725220,572.307922 510.984467,569.848572 
	C508.023102,568.579956 506.373718,566.898560 506.701141,563.490051 
	C507.059204,559.763062 506.122101,555.929871 507.336975,552.270142 
	C509.780243,551.817566 511.454865,553.122192 513.155884,554.008362 
	C520.210754,557.683655 527.682190,558.550232 535.461792,557.667419 
	C545.263367,556.555054 552.198975,548.548645 551.175781,538.857727 
	C542.143921,545.463623 532.248840,547.178833 521.811707,544.206909 
	C515.066772,542.286255 509.682190,538.135193 505.753082,532.191772 
	C496.560089,518.285889 497.797455,497.518524 508.031311,486.625671 
	C517.661926,476.374939 537.499878,473.834747 550.993713,484.089905 
	C551.299255,478.745789 555.127747,479.604004 558.468506,479.653198 
	C571.129272,479.839600 569.236023,477.996582 569.320068,490.453064 
	C569.433533,507.269043 569.358643,524.086365 569.346252,540.903076 
	C569.333679,557.924805 559.864746,569.638794 543.157593,573.015869 
	C538.777771,573.901123 534.314697,574.686096 529.325439,574.101807 
M550.585266,518.832031 
	C552.101013,515.182434 552.110474,511.369446 551.673767,507.548004 
	C550.944458,501.164673 545.829041,495.263885 539.704834,493.586487 
	C533.116821,491.782043 526.548401,493.977600 522.331238,499.393738 
	C515.793396,507.790375 517.512512,520.565369 525.969116,526.427002 
	C534.638611,532.436096 543.904846,529.813904 550.585266,518.832031 
z"/>
<path fill="#000000" opacity="1.000000" stroke="none" 
	d="
M778.356384,481.956604 
	C778.425232,482.981262 778.489319,483.634857 778.548950,484.243439 
	C779.890808,484.990631 780.489441,483.833435 781.188049,483.309692 
	C791.330078,475.706268 802.355347,475.644775 813.261169,480.635803 
	C824.439697,485.751587 829.262512,495.658875 830.317688,507.502075 
	C831.330322,518.867554 829.358704,529.414001 821.004761,537.953613 
	C810.352783,548.842224 794.478027,550.366455 781.867004,541.722595 
	C781.053711,541.165161 780.257141,540.583252 779.456726,540.015442 
	C777.036011,541.517395 779.863159,545.811035 776.338379,546.080994 
	C771.716797,546.434875 767.030701,546.255798 762.394226,545.961487 
	C760.408936,545.835449 760.690308,543.748901 760.688965,542.322327 
	C760.661682,513.505493 760.690308,484.688660 760.641785,455.871948 
	C760.636963,453.013336 761.529785,451.775909 764.619385,451.598114 
	C778.355652,450.807465 778.350403,450.717926 778.350464,464.595184 
	C778.350464,470.258636 778.351135,475.922119 778.356384,481.956604 
M812.093933,510.872375 
	C811.992065,510.213776 811.872192,509.557404 811.791138,508.896271 
	C810.603088,499.209381 802.782166,492.037933 794.093201,492.673706 
	C784.630676,493.366150 778.393799,500.417114 778.352234,510.474030 
	C778.345337,512.140503 778.322266,513.807922 778.361877,515.473511 
	C778.520996,522.164307 782.983276,528.412109 789.284973,530.803345 
	C795.625244,533.209229 802.787476,531.299316 807.449280,526.034058 
	C811.099915,521.910950 811.993713,516.907166 812.093933,510.872375 
z"/>
<path fill="#000000" opacity="1.000000" stroke="none" 
	d="
M697.356812,483.177429 
	C712.910706,474.774445 729.907654,476.064423 741.437439,486.514465 
	C751.529541,495.661530 754.125305,507.346252 751.583679,520.210754 
	C748.996704,533.304443 740.819824,541.697388 728.057251,545.466492 
	C703.402283,552.747681 680.879700,535.856567 681.749817,510.471344 
	C682.141968,499.030090 687.026550,489.631348 697.356812,483.177429 
M714.924500,493.286530 
	C704.835449,495.598938 698.613892,505.339142 700.666016,515.609070 
	C702.627197,525.423462 708.440491,531.333374 716.445312,531.650574 
	C725.932739,532.026489 733.165894,524.164795 733.702698,513.530518 
	C734.299500,501.707672 726.011414,491.778839 714.924500,493.286530 
z"/>
<path fill="#000000" opacity="1.000000" stroke="none" 
	d="
M578.420715,529.433228 
	C577.685547,519.558228 581.957947,513.224365 591.223450,509.469543 
	C599.290833,506.200287 607.851379,506.626556 616.245239,505.882660 
	C621.971008,505.375244 623.253723,503.327271 619.983704,498.450226 
	C616.248718,492.879608 610.324768,492.495789 604.408081,492.809540 
	C597.315857,493.185699 590.891846,495.851715 584.915649,499.681091 
	C581.150757,490.044250 583.279907,484.418640 591.922424,480.890656 
	C601.462036,476.996429 611.335632,476.454620 621.258057,478.980591 
	C632.007019,481.716949 639.087708,490.697510 639.282410,501.955505 
	C639.509827,515.097900 639.259521,528.247986 639.394775,541.392944 
	C639.430542,544.864990 638.102966,546.264282 634.718628,546.077881 
	C632.561829,545.959167 630.393066,546.068909 628.230042,546.047668 
	C624.505188,546.011047 620.166443,546.762329 621.951050,539.640503 
	C612.870056,546.037903 604.182678,548.914795 594.236938,546.338379 
	C585.139587,543.981750 579.761902,538.480835 578.420715,529.433228 
M608.916809,533.512878 
	C615.085083,531.764160 620.634216,529.327087 621.612427,521.911560 
	C622.009583,518.900757 621.122864,517.260559 617.608826,517.300476 
	C613.259705,517.349976 608.962891,517.664734 604.687805,518.367188 
	C599.751770,519.178223 596.290955,522.530212 596.427185,526.266174 
	C596.572083,530.239685 599.963806,533.124390 605.119812,533.600525 
	C606.109863,533.691956 607.116455,533.603943 608.916809,533.512878 
z"/>
<path fill="#000000" opacity="1.000000" stroke="none" 
	d="
M856.404785,477.724976 
	C863.934448,477.208923 870.731995,478.415527 877.432617,480.704285 
	C880.885437,481.883728 882.755188,483.610748 882.403137,487.525574 
	C882.111694,490.766083 882.343628,494.053589 882.343628,498.272614 
	C875.952515,494.942078 870.352600,492.493073 864.205994,491.785645 
	C862.892883,491.634552 861.520813,491.300842 860.260437,491.525482 
	C857.271973,492.058075 854.038391,492.811981 853.562988,496.455200 
	C853.109802,499.927368 855.926880,501.398621 858.604126,502.413422 
	C863.887939,504.416260 869.356445,505.950989 874.577881,508.095001 
	C883.620605,511.808075 887.500427,517.549622 887.337036,526.328003 
	C887.166443,535.490051 881.924377,541.183838 874.009705,544.456482 
	C862.116577,549.374084 850.533386,547.024719 839.258301,541.951843 
	C837.831482,541.309937 836.773621,540.268188 836.773804,538.525757 
	C836.774231,534.399963 836.773926,530.274231 836.773926,526.281616 
	C839.271667,525.335144 840.743225,526.749878 842.293213,527.514160 
	C847.110352,529.889587 852.156738,531.508911 857.435486,532.384216 
	C860.242126,532.849548 863.047668,532.908081 865.780762,531.753479 
	C867.780884,530.908569 869.168457,529.558167 869.509583,527.432739 
	C869.888611,525.070923 868.274536,523.720337 866.486511,522.718384 
	C861.372131,519.852356 855.627930,518.564880 850.239319,516.378784 
	C845.554749,514.478333 841.147949,512.223206 838.517517,507.574738 
	C832.550720,497.029999 836.911560,484.506836 848.286194,479.908905 
	C850.731689,478.920349 853.391052,478.460724 856.404785,477.724976 
z"/>
<path fill="#000000" opacity="1.000000" stroke="none" 
	d="
M673.967712,496.001953 
	C673.592712,515.785950 674.989197,535.114929 673.264587,554.351196 
	C671.731506,571.451416 657.558533,575.530090 644.076111,572.646484 
	C641.992859,572.200867 641.645630,570.914307 641.597839,569.026306 
	C641.512390,565.646667 642.612000,562.494751 643.021790,559.023560 
	C643.683838,558.885986 644.299683,558.658142 644.920471,558.644104 
	C652.932434,558.463257 655.597839,555.890930 655.624207,547.779846 
	C655.692261,526.819885 655.818237,505.857330 655.532166,484.901093 
	C655.461243,479.709778 657.170959,478.436920 662.080017,478.542877 
	C673.996033,478.800171 674.000366,478.579773 673.970459,490.511780 
	C673.966309,492.175293 673.968994,493.838776 673.967712,496.001953 
z"/>
<path fill="#000000" opacity="1.000000" stroke="none" 
	d="
M656.285706,453.576904 
	C661.372620,449.129730 666.254700,448.524567 670.425842,451.540131 
	C674.078430,454.180817 675.402649,458.894318 673.650330,463.017792 
	C671.582520,467.883636 665.495972,470.176483 660.228760,468.073730 
	C654.800476,465.906677 653.216125,460.555389 656.285706,453.576904 
z"/>
<path fill="#000000" opacity="1.000000" stroke="none" 
	d="
M236.870422,504.401794 
	C237.402008,501.172516 238.923706,499.335785 241.505142,497.957123 
	C253.922195,491.325592 266.253448,484.533447 279.401581,477.369843 
	C280.787994,485.107635 282.084351,492.021454 283.256927,498.956177 
	C285.493103,512.181274 287.551819,525.437500 289.917328,538.638977 
	C290.645844,542.704773 290.153717,545.961304 287.297180,549.173035 
	C279.228516,558.244812 271.323181,567.466858 263.548615,576.792297 
	C260.926270,579.937866 258.779297,579.879517 256.299957,576.954529 
	C248.448044,567.691284 240.600754,558.424133 232.749634,549.160278 
	C231.132004,547.251465 230.872711,545.220093 231.271393,542.681641 
	C233.250443,530.080566 234.974548,517.439453 236.870422,504.401794 
z"/>
<path fill="#000000" opacity="1.000000" stroke="none" 
	d="
M249.149323,486.191528 
	C245.976791,487.957947 243.126801,489.550659 239.149765,491.773193 
	C240.203079,483.776978 240.997284,476.949615 242.019562,470.156586 
	C244.017578,456.879883 246.221909,443.633881 248.170181,430.350189 
	C248.800537,426.052277 246.024429,422.437561 245.025269,418.448669 
	C243.862625,413.807068 241.703674,409.432922 240.997726,404.524536 
	C245.768997,402.165253 250.834137,402.132446 255.715500,401.795746 
	C262.012665,401.361328 268.365967,401.818085 274.686279,401.615509 
	C279.115387,401.473511 279.983673,403.269836 278.380280,407.042480 
	C277.861237,408.263702 277.664734,409.634125 277.069244,410.808868 
	C271.045227,422.692719 271.747955,434.927826 274.691742,447.439972 
	C276.093140,453.396484 276.361237,459.619171 277.754364,465.578308 
	C278.540710,468.941895 277.416077,470.497345 274.779236,471.943207 
	C266.315613,476.584015 257.903717,481.319092 249.149323,486.191528 
z"/>
</svg>